<svg width="24" height="24" viewBox="0 0 24 24" fill="none" xmlns="http://www.w3.org/2000/svg">
<path fill-rule="evenodd" clip-rule="evenodd" d="M18.4407 12.1937V19H16.8107V17.9484H7.19283V19H5.56163V12.1937H5V11.1478H6.37198L7.13678 8.82585C7.36214 8.14111 7.73812 7.51904 8.4749 7.51904H9.68574C9.67289 7.42334 9.66589 7.3265 9.66589 7.22852C9.66589 5.99805 10.6887 5 11.9486 5C13.2097 5 14.2325 5.99805 14.2325 7.22852C14.2325 7.32764 14.2255 7.42448 14.2127 7.51904H15.8112C16.5468 7.51904 16.9706 8.12858 17.1493 8.82471L17.7401 11.1466H19V12.1925L18.4407 12.1937ZM13.0252 6.91406C13.1992 6.91292 13.3393 7.04964 13.3393 7.21826C13.3393 7.38802 13.198 7.52588 13.024 7.52816L12.2616 7.53385L12.2557 8.27783C12.2545 8.44645 12.1121 8.58203 11.9381 8.58203C11.7641 8.58203 11.6252 8.44531 11.6264 8.27669L11.6322 7.53727L10.8721 7.54297C10.6981 7.54411 10.558 7.40739 10.558 7.23877C10.558 7.06901 10.6992 6.93115 10.8732 6.92887L11.6357 6.92318L11.6415 6.1792C11.6427 6.01058 11.7852 5.875 11.9591 5.875C12.1331 5.875 12.2721 6.01172 12.2709 6.18034L12.2651 6.91976L13.0252 6.91406ZM14.0025 8.20378C13.6312 8.94548 12.8512 9.45589 11.9498 9.45589C11.0472 9.45589 10.2672 8.94548 9.89708 8.20378H8.61618C8.05571 8.20378 7.76847 8.67773 7.59683 9.1984L6.95696 11.1455H17.0442L16.6122 9.1984C16.4942 8.6652 16.1533 8.20378 15.5928 8.20378H14.0025ZM9.55963 15.8475H14.3761V16.9561H9.55963V15.8475ZM6.10809 13.2658C7.33528 13.3034 8.08607 13.8058 8.27873 14.8517H6.10809V13.2658ZM17.7389 13.2658C16.5118 13.3034 15.761 13.8047 15.5683 14.8517H17.7389V13.2658Z" fill="#8BD8BD"/>
<circle cx="12" cy="12" r="11.5" stroke="#8BD8BD"/>
</svg>
