<svg width="283" height="283" viewBox="0 0 283 283" fill="none" xmlns="http://www.w3.org/2000/svg">
<circle cx="141.5" cy="141.5" r="141.5" fill="url(#paint0_linear_324_7)"/>
<path fill-rule="evenodd" clip-rule="evenodd" d="M210.646 135.004V205.096H193.027V194.267H89.0675V205.096H71.4358V135.004H65.3651V124.234H80.1949L88.4617 100.322C90.8976 93.2707 94.9616 86.8646 102.925 86.8646H116.013C115.875 85.879 115.799 84.8818 115.799 83.8728C115.799 71.2013 126.854 60.9233 140.473 60.9233C154.104 60.9233 165.159 71.2013 165.159 83.8728C165.159 84.8935 165.084 85.8908 164.945 86.8646H182.224C190.175 86.8646 194.756 93.1416 196.687 100.31L203.073 124.221H216.692V134.992L210.646 135.004ZM152.11 80.6344C153.991 80.6227 155.505 82.0306 155.505 83.7671C155.505 85.5153 153.978 86.935 152.097 86.9585L143.856 87.0171L143.792 94.6786C143.779 96.4151 142.24 97.8113 140.359 97.8113C138.478 97.8113 136.977 96.4033 136.99 94.6669L137.053 87.0523L128.837 87.111C126.956 87.1227 125.442 85.7148 125.442 83.9783C125.442 82.2301 126.968 80.8104 128.849 80.787L137.091 80.7284L137.153 73.0668C137.166 71.3304 138.707 69.9341 140.586 69.9341C142.467 69.9341 143.969 71.3421 143.956 73.0785L143.894 80.6931L152.11 80.6344ZM162.673 93.916C158.66 101.554 150.229 106.81 140.486 106.81C130.729 106.81 122.298 101.554 118.298 93.916H104.453C98.3944 93.916 95.2896 98.7968 93.4343 104.159L86.518 124.21H195.551L190.882 104.159C189.606 98.6678 185.921 93.916 179.863 93.916H162.673ZM114.65 172.632H166.712V184.048H114.65V172.632ZM77.3425 146.045C90.6072 146.432 98.7226 151.606 100.805 162.377H77.3425V146.045ZM203.06 146.045C189.796 146.432 181.681 151.595 179.598 162.377H203.06V146.045Z" fill="white"/>
<defs>
<linearGradient id="paint0_linear_324_7" x1="61.3167" y1="37.7333" x2="202.345" y2="306.583" gradientUnits="userSpaceOnUse">
<stop stop-color="#47F41C"/>
<stop offset="1" stop-color="#025A01"/>
</linearGradient>
</defs>
</svg>
