<svg width="22" height="17" viewBox="0 0 22 17" fill="none" xmlns="http://www.w3.org/2000/svg">
<path d="M18.965 4.8L18.2847 1.59975C18.005 0.5595 17.2048 0 16.1248 0H5.7245C4.60475 0 3.96425 0.56025 3.64475 1.59975L2.92475 4.8H0.125V5.60025H2.72525V5.64C1.4855 5.72025 0.5255 6.75975 0.5255 8.04V13.5997H1.7255V14.7998C1.7255 15.9195 2.60525 16.8 3.72575 16.8C4.84625 16.8 5.726 15.9203 5.726 14.7998V13.5997H16.1262V14.7998C16.1262 15.9195 17.006 16.8 18.1265 16.8C19.247 16.8 20.1268 15.9203 20.1268 14.7998V13.5997H21.3267V8.04C21.3267 6.80025 20.3668 5.76 19.1667 5.64V5.60025H21.7265V4.8H18.9665H18.965ZM4.40525 1.83975C4.64525 1.11975 5.00525 0.7995 5.72525 0.7995H16.1255C16.8852 0.7995 17.3255 1.11975 17.5257 1.79925L18.326 5.63925H3.52625L4.406 1.839L4.40525 1.83975ZM4.925 14.7998C4.925 15.48 4.40525 15.9998 3.725 15.9998C3.04475 15.9998 2.525 15.48 2.525 14.7998V13.5997H4.925V14.7998ZM19.325 14.7998C19.325 15.48 18.8052 15.9998 18.125 15.9998C17.4448 15.9998 16.925 15.48 16.925 14.7998V13.5997H19.325V14.7998V14.7998ZM20.525 8.04V12.8003H1.325V8.04C1.325 7.16025 2.045 6.44025 2.92475 6.44025H18.9245C19.8042 6.44025 20.5243 7.16025 20.5243 8.04H20.525Z" fill="#8BD8BD"/>
</svg>
