<svg width="19" height="14" viewBox="0 0 19 14" fill="none" xmlns="http://www.w3.org/2000/svg">
<path d="M3.66711 7.5C2.93398 7.5 2.33398 8.1 2.33398 8.83313C2.33398 9.56625 2.93398 10.1662 3.66711 10.1662C4.40023 10.1662 5.00023 9.56625 5.00023 8.83313C5.00023 8.1 4.40023 7.5 3.66711 7.5ZM3.66711 9.5C3.30023 9.5 3.00023 9.2 3.00023 8.83313C3.00023 8.46625 3.30023 8.16625 3.66711 8.16625C4.03398 8.16625 4.33398 8.46625 4.33398 8.83313C4.33398 9.2 4.03398 9.5 3.66711 9.5Z" fill="#8BD8BD"/>
<path d="M14.3332 7.5C13.6001 7.5 13.0001 8.1 13.0001 8.83313C13.0001 9.56625 13.6001 10.1662 14.3332 10.1662C15.0663 10.1662 15.6663 9.56625 15.6663 8.83313C15.6663 8.1 15.0663 7.5 14.3332 7.5ZM14.3332 9.5C13.9663 9.5 13.6663 9.2 13.6663 8.83313C13.6663 8.46625 13.9663 8.16625 14.3332 8.16625C14.7001 8.16625 15.0001 8.46625 15.0001 8.83313C15.0001 9.2 14.7001 9.5 14.3332 9.5Z" fill="#8BD8BD"/>
<path d="M15.7 4L15.1331 1.33312C14.9 0.46625 14.2331 0 13.3331 0H4.66625C3.73312 0 3.19937 0.466875 2.93313 1.33312L2.33313 4H0V4.66687H2.16687V4.7C1.13375 4.76687 0.33375 5.63312 0.33375 6.7V11.3331H1.33375V12.3331C1.33375 13.2662 2.06687 14 3.00063 14C3.93438 14 4.6675 13.2669 4.6675 12.3331V11.3331H13.3344V12.3331C13.3344 13.2662 14.0675 14 15.0013 14C15.935 14 16.6681 13.2669 16.6681 12.3331V11.3331H17.6681V6.7C17.6681 5.66687 16.8681 4.8 15.8681 4.7V4.66687H18.0012V4H15.7013H15.7ZM3.56687 1.53312C3.76687 0.933125 4.06687 0.66625 4.66687 0.66625H13.3337C13.9669 0.66625 14.3337 0.933125 14.5006 1.49937L15.1675 4.69937H2.83437L3.5675 1.5325L3.56687 1.53312ZM4 12.3331C4 12.9 3.56688 13.3331 3 13.3331C2.43313 13.3331 2 12.9 2 12.3331V11.3331H4V12.3331ZM16 12.3331C16 12.9 15.5669 13.3331 15 13.3331C14.4331 13.3331 14 12.9 14 12.3331V11.3331H16V12.3331ZM17 6.7V10.6669H1V6.7C1 5.96687 1.6 5.36687 2.33313 5.36687H15.6663C16.3994 5.36687 16.9994 5.96687 16.9994 6.7H17Z" fill="#8BD8BD"/>
</svg>
