<svg width="16" height="13" viewBox="0 0 16 13" fill="none" xmlns="http://www.w3.org/2000/svg">
<mask id="mask0_2_48" style="mask-type:luminance" maskUnits="userSpaceOnUse" x="0" y="0" width="16" height="13">
<path d="M16 0H0V13H16V0Z" fill="white"/>
</mask>
<g mask="url(#mask0_2_48)">
<path d="M15.0063 11.9197H3.06427C2.68073 11.9381 2.30151 11.8459 1.99354 11.6592C1.68557 11.4726 1.46864 11.2036 1.38102 10.8997C1.34364 10.7632 1.32612 10.6236 1.32882 10.4838C1.32882 7.32872 1.32882 4.17365 1.32882 1.01857V0.802809C1.15116 0.95161 1.01195 1.06544 0.870921 1.18076C0.758277 1.27376 0.645633 1.36676 0.530242 1.45679C0.505466 1.48393 0.473901 1.50651 0.437622 1.52304C0.401342 1.53957 0.361168 1.54968 0.319738 1.5527C0.278309 1.55572 0.236561 1.55159 0.197237 1.54057C0.157913 1.52956 0.121903 1.51191 0.0915724 1.48878C-0.0384716 1.38611 -0.0247346 1.2507 0.128205 1.1205L0.137363 1.11083C0.5452 0.779497 0.953343 0.448167 1.36179 0.116836C1.55411 -0.0386606 1.6869 -0.0386606 1.88014 0.116836C2.29347 0.450647 2.70466 0.785449 3.11372 1.12124C3.27307 1.25144 3.28589 1.38388 3.15677 1.48878C3.02764 1.59369 2.86371 1.58104 2.69886 1.45158C2.44977 1.25144 2.20341 1.04833 1.92776 0.822897C1.91952 0.889114 1.91036 0.927802 1.91036 0.965746C1.91036 4.16398 1.91036 7.3632 1.91036 10.5634C1.9015 10.6836 1.92476 10.8039 1.97856 10.916C2.03235 11.0282 2.11539 11.1296 2.22198 11.2132C2.32857 11.2968 2.45618 11.3607 2.59604 11.4005C2.7359 11.4403 2.8847 11.455 3.03222 11.4436C4.54879 11.4436 6.06536 11.4436 7.58193 11.4436H14.9651C14.9369 11.4088 14.9063 11.3752 14.8736 11.3431C14.6519 11.1616 14.4266 10.9815 14.2059 10.7993C14.0484 10.6698 14.0365 10.5337 14.1656 10.4273C14.2948 10.3209 14.455 10.3357 14.6171 10.4667C15.0347 10.804 15.4511 11.1422 15.8663 11.4815C16.0311 11.6169 16.0403 11.733 15.8855 11.8602C15.4581 12.2149 15.025 12.5668 14.586 12.916C14.5597 12.9407 14.5273 12.9606 14.491 12.9746C14.4547 12.9886 14.4152 12.9963 14.375 12.9972C14.3348 12.9981 14.2948 12.9921 14.2576 12.9798C14.2204 12.9674 14.1867 12.9489 14.1588 12.9254C14.1309 12.9019 14.1093 12.8739 14.0955 12.8432C14.0816 12.8126 14.0758 12.7799 14.0783 12.7473C14.0808 12.7147 14.0917 12.6829 14.1102 12.6539C14.1287 12.6249 14.1545 12.5994 14.1858 12.5789C14.2343 12.5365 14.2865 12.4963 14.3369 12.4554L15.0027 11.9175" fill="#8BD8BD"/>
<path d="M9.59301 0.00594549H14.3213C14.5434 -0.000787372 14.7647 0.0298952 14.9715 0.0960621C15.1782 0.162229 15.3658 0.262448 15.5226 0.39041C15.6793 0.518372 15.8017 0.671307 15.8822 0.83959C15.9626 1.00787 15.9993 1.18786 15.9899 1.36822C15.9899 3.95339 15.9899 6.53856 15.9899 9.12373C15.9963 9.17645 15.9926 9.22966 15.9789 9.28146C15.9604 9.33301 15.9204 9.37773 15.8657 9.40795C15.8111 9.43817 15.7452 9.452 15.6794 9.44707C15.6135 9.44215 15.5519 9.41877 15.5049 9.38095C15.458 9.34313 15.4287 9.29323 15.4221 9.23979C15.4187 9.19147 15.4187 9.14303 15.4221 9.09471C15.4221 6.54823 15.4221 4.00175 15.4221 1.45527C15.4439 1.32083 15.4272 1.18412 15.3732 1.0558C15.3192 0.927493 15.2294 0.811062 15.1109 0.715612C14.9923 0.620161 14.8482 0.548276 14.6898 0.505575C14.5314 0.462874 14.3629 0.450514 14.1977 0.469461H4.7942C4.73472 0.472342 4.67509 0.472342 4.61562 0.469461C4.54742 0.461255 4.48497 0.433781 4.43924 0.39187C4.39352 0.349958 4.36744 0.296292 4.3656 0.240307C4.36719 0.184302 4.39305 0.130547 4.43861 0.0884977C4.48417 0.0464482 4.54652 0.0187976 4.6147 0.0104095C4.66807 0.00775885 4.72159 0.00775885 4.77496 0.0104095H9.59301" fill="#8BD8BD"/>
<path d="M5.38581 4.17685C5.71384 3.98393 6.12238 3.90407 6.52252 3.95465C6.92266 4.00523 7.28201 4.18216 7.52238 4.44692C7.54333 4.41263 7.56816 4.38 7.59656 4.34945C7.79775 4.16265 8.06472 4.03057 8.36134 3.97108C8.65797 3.9116 8.96992 3.92758 9.255 4.01688C9.54007 4.10617 9.78449 4.26446 9.95519 4.47032C10.1259 4.67619 10.2146 4.91969 10.2093 5.16786C10.2093 6.26453 10.2093 7.36143 10.2093 8.45859C10.2093 8.6446 10.1095 8.74429 9.92637 8.74504C9.74321 8.74578 9.6388 8.6446 9.63789 8.46232C9.63789 7.37012 9.63789 6.27866 9.63789 5.18869C9.64599 5.04747 9.60328 4.90738 9.51496 4.78556C9.42665 4.66373 9.29656 4.56545 9.1406 4.50272C8.99708 4.43687 8.83354 4.40535 8.6689 4.4118C8.50425 4.41825 8.34521 4.46241 8.21015 4.53918C8.07031 4.61414 7.95763 4.71806 7.88374 4.84022C7.80984 4.96238 7.77742 5.09834 7.7898 5.23408C7.7898 6.28263 7.7898 7.33118 7.7898 8.37973C7.79144 8.43285 7.7896 8.48599 7.7843 8.53895C7.78359 8.56692 7.77607 8.59451 7.76218 8.62011C7.74828 8.64572 7.72828 8.66883 7.70334 8.68813C7.6784 8.70742 7.649 8.72252 7.61684 8.73254C7.58468 8.74256 7.5504 8.74732 7.51597 8.74652C7.44687 8.7516 7.37796 8.73524 7.32309 8.70073C7.26822 8.66623 7.23145 8.61614 7.22017 8.56052C7.21052 8.51283 7.20806 8.46436 7.21284 8.41619C7.21284 7.32919 7.21284 6.2422 7.21284 5.15447C7.21162 4.98372 7.13814 4.81851 7.00474 4.68656C6.87134 4.55461 6.68613 4.46395 6.4802 4.42981C6.28397 4.39395 6.07859 4.41302 5.89738 4.48393C5.71618 4.55483 5.56979 4.67341 5.48198 4.82041C5.412 4.9576 5.3771 5.10493 5.37941 5.25342C5.37116 6.29503 5.3794 7.34036 5.37391 8.38419C5.37575 8.44195 5.37115 8.49972 5.36017 8.55681C5.35278 8.61086 5.32019 8.66057 5.26909 8.69572C5.218 8.73086 5.15227 8.74878 5.08543 8.74578C5.01914 8.75018 4.95322 8.73442 4.90042 8.70156C4.84763 8.66871 4.81174 8.6211 4.7997 8.56797C4.78831 8.52572 4.78369 8.48245 4.78596 8.43925C4.78596 6.98993 4.78596 5.54036 4.78596 4.09054C4.78405 4.03767 4.79271 3.98491 4.81161 3.9343C4.83138 3.8854 4.87071 3.84328 4.92335 3.81464C4.97599 3.786 5.03891 3.77249 5.10209 3.77625C5.16527 3.78002 5.22509 3.80084 5.27202 3.83541C5.31896 3.86998 5.35031 3.91631 5.36109 3.96703C5.37406 4.03806 5.38261 4.10958 5.38673 4.18131" fill="#8BD8BD"/>
<path d="M12.1207 4.85165C12.4366 4.85165 12.7068 4.85165 12.9779 4.85165C13.0429 4.84936 13.1079 4.85462 13.1711 4.86727C13.2361 4.87874 13.2936 4.90949 13.3322 4.95351C13.3708 4.99754 13.3878 5.05168 13.3799 5.10535C13.3809 5.13235 13.3753 5.15923 13.3634 5.18445C13.3515 5.20968 13.3336 5.23274 13.3107 5.25231C13.2878 5.27189 13.2604 5.28759 13.23 5.2985C13.1996 5.30942 13.1668 5.31533 13.1336 5.31591C12.6347 5.32285 12.1359 5.32285 11.6371 5.31591C11.5647 5.31344 11.4952 5.29194 11.439 5.25465C11.3829 5.21736 11.3431 5.16628 11.3258 5.10908C11.3 5.04945 11.2959 4.98507 11.3139 4.9236C11.3319 4.86213 11.3713 4.80616 11.4274 4.76237C11.8462 4.39979 12.2632 4.03597 12.6784 3.67091C12.7568 3.60431 12.8071 3.51915 12.8219 3.42778C12.8367 3.33641 12.8153 3.24359 12.7608 3.16276C12.7039 3.08258 12.6177 3.01876 12.5142 2.98013C12.4107 2.94149 12.2949 2.92996 12.183 2.94712C12.071 2.96428 11.9684 3.00929 11.8893 3.07591C11.8102 3.14254 11.7586 3.22748 11.7415 3.319C11.7415 3.34801 11.7415 3.37703 11.7333 3.4053C11.722 3.46491 11.683 3.51872 11.6243 3.55569C11.5657 3.59266 11.4918 3.60997 11.4179 3.60407C11.3441 3.59816 11.2758 3.56949 11.2271 3.52394C11.1785 3.47839 11.1531 3.41943 11.1563 3.35917C11.1627 3.13557 11.2696 2.92161 11.4569 2.75763C11.6441 2.59365 11.8987 2.49099 12.1727 2.46903C12.4466 2.44706 12.721 2.50731 12.9441 2.63839C13.1672 2.76947 13.3235 2.96234 13.3836 3.18061C13.4243 3.32712 13.4193 3.47958 13.3689 3.6241C13.3185 3.76861 13.2244 3.90058 13.0951 4.00795C12.7856 4.28174 12.4696 4.55033 12.1207 4.85239" fill="#8BD8BD"/>
</g>
</svg>
