<svg width="18" height="18" viewBox="0 0 18 18" fill="none" xmlns="http://www.w3.org/2000/svg">
<path d="M18 5.36024C18 4.60547 17.3875 3.99354 16.6327 3.99354C15.8774 3.99354 15.2649 4.60547 15.2649 5.36024C15.2649 5.72938 15.4116 6.06393 15.6495 6.30946C14.7195 8.23535 12.9419 8.90771 11.5642 8.29909C10.3371 7.75635 9.88443 6.20508 9.73114 5.00319C10.2316 4.74008 10.5727 4.21601 10.5727 3.61121C10.5727 2.74275 9.86903 2.03906 9 2.03906C8.13154 2.03906 7.42732 2.74275 7.42732 3.61121C7.42732 4.21601 7.76844 4.74005 8.26889 5.00319C8.11564 6.20511 7.66301 7.75638 6.43581 8.29909C5.05811 8.90775 3.28054 8.23535 2.35055 6.30946C2.58841 6.06393 2.73509 5.72938 2.73509 5.36024C2.73509 4.60547 2.12259 3.99354 1.36782 3.99354C0.612492 3.99354 0 4.60547 0 5.36024C0 6.05566 0.519645 6.62861 1.19092 6.71541L2.7669 12.4838H15.2331L16.8091 6.71541C17.4809 6.62861 18 6.05566 18 5.36024Z" fill="#8BD8BD"/>
<path d="M15.9967 14.9436C15.9967 15.5056 15.5413 15.961 14.9788 15.961H3.02126C2.45929 15.9609 2.00391 15.5056 2.00391 14.9436V14.859C2.00391 14.2965 2.45929 13.8412 3.02126 13.8412H14.9788C15.5413 13.8412 15.9967 14.2965 15.9967 14.859V14.9436Z" fill="#8BD8BD"/>
</svg>
