<svg width="20" height="20" viewBox="0 0 20 20" fill="none" xmlns="http://www.w3.org/2000/svg">
<path d="M19.9315 14.9635C19.8575 14.5048 19.7048 14.0936 19.4876 13.7251L19.4965 13.7414C19.4191 13.6152 19.2922 13.5263 19.1429 13.5018L19.1402 13.5012L13.0535 12.5349C13.0298 12.5308 13.0019 12.5288 12.9741 12.5288C12.8336 12.5288 12.706 12.5851 12.6138 12.6767C12.1557 13.1381 11.8035 13.7054 11.5985 14.3392L11.5904 14.3691C8.86566 13.2562 6.74561 11.1356 5.65776 8.48302L5.63198 8.41177C6.295 8.19801 6.86302 7.8465 7.32381 7.38778C7.4161 7.29549 7.47311 7.16792 7.47311 7.02745C7.47311 6.99963 7.47107 6.97248 7.46632 6.94534L7.467 6.94805L6.50131 0.861127C6.4762 0.708445 6.38662 0.580871 6.26175 0.505547L6.25971 0.50419C5.917 0.300614 5.51729 0.151325 5.09043 0.0793948L5.07007 0.0766804C4.87802 0.0278221 4.65746 0 4.43012 0C4.38736 0 4.34461 0.000678633 4.30186 0.00271439H4.30796C1.9341 0.0196791 0.0149299 1.94008 0 4.31242V4.31378C0.0101795 12.9732 7.02725 19.9905 15.6866 20C18.0618 19.9857 19.9844 18.0647 19.9993 15.6917V15.6903C19.9993 15.6733 20 15.6536 20 15.6333C20 15.3958 19.9749 15.1644 19.9281 14.9405L19.9321 14.9622L19.9315 14.9635ZM15.6873 18.9835C7.58915 18.974 1.02745 12.412 1.01795 4.31581C1.03084 2.50127 2.49873 1.03349 4.31271 1.02127H4.31407C4.32357 1.02127 4.33443 1.02127 4.34529 1.02127C4.53191 1.02127 4.71446 1.04163 4.88955 1.07963L4.87259 1.07624C5.12164 1.11695 5.34424 1.18617 5.55258 1.28049L5.53561 1.27371L6.41851 6.8388C5.99233 7.19777 5.46571 7.45089 4.88684 7.552L4.86716 7.55471C4.62624 7.59814 4.4464 7.80579 4.4464 8.05619C4.4464 8.1159 4.45658 8.1729 4.47559 8.22583L4.47423 8.22244C5.67745 11.6642 8.33972 14.3257 11.699 15.5037L11.7811 15.5288C11.8306 15.5464 11.8876 15.5566 11.9467 15.5566C12.0417 15.5566 12.1312 15.5308 12.2073 15.4854L12.2052 15.4867C12.3314 15.4114 12.421 15.2865 12.4475 15.14L12.4482 15.1366C12.552 14.5374 12.8051 14.0101 13.1682 13.5785L13.1641 13.5833L18.7296 14.4675C18.8199 14.6683 18.8911 14.9025 18.9312 15.1467L18.9332 15.163C18.9637 15.3069 18.9814 15.4718 18.9814 15.6408C18.9814 15.657 18.9814 15.674 18.9807 15.6903V15.6876C18.9698 17.5028 17.5013 18.9713 15.6873 18.9835Z" fill="#8BD8BD"/>
</svg>
