<svg width="22" height="22" viewBox="0 0 22 22" fill="none" xmlns="http://www.w3.org/2000/svg">
<path fill-rule="evenodd" clip-rule="evenodd" d="M8.64162 0.886139C9.9923 -0.295381 12.0087 -0.295378 13.3594 0.886139L19.7208 6.45087C20.706 7.31262 21.271 8.55773 21.271 9.86661V17.9272C21.271 19.9059 19.667 21.51 17.6883 21.51H4.31273C2.33403 21.51 0.72998 19.9059 0.72998 17.9272V9.86661C0.72998 8.55773 1.29508 7.31262 2.2802 6.45087L8.64162 0.886139ZM12.4159 1.96478C11.6054 1.25587 10.3956 1.25587 9.5852 1.96478L3.22375 7.52951C2.54972 8.11913 2.16308 8.97101 2.16308 9.86661V17.9272C2.16308 19.1145 3.12551 20.0769 4.31273 20.0769H17.6883C18.8755 20.0769 19.838 19.1145 19.838 17.9272V9.86661C19.838 8.97101 19.4513 8.11913 18.7773 7.52952L12.4159 1.96478Z" fill="#8BD8BD"/>
<path fill-rule="evenodd" clip-rule="evenodd" d="M8.25 15.6236C8.25 15.2094 8.58579 14.8736 9 14.8736H13C13.4142 14.8736 13.75 15.2094 13.75 15.6236C13.75 16.0379 13.4142 16.3736 13 16.3736H9C8.58579 16.3736 8.25 16.0379 8.25 15.6236Z" fill="#8BD8BD"/>
</svg>
