<svg width="21" height="23" viewBox="0 0 21 23" fill="none" xmlns="http://www.w3.org/2000/svg">
<path d="M3.18514 0H17.5131C19.2703 0 20.6966 1.42457 20.6966 3.18343V19.1023C20.6966 19.9466 20.3612 20.7563 19.7642 21.3533C19.1672 21.9503 18.3574 22.2857 17.5131 22.2857H3.18343C2.33913 22.2857 1.52941 21.9503 0.932405 21.3533C0.335396 20.7563 0 19.9466 0 19.1023V3.18343C0.00171429 1.42457 1.428 0 3.18514 0ZM3.28457 1.488C2.28857 1.488 1.47943 2.29714 1.47943 3.29314V18.9926C1.47943 19.9886 2.28857 20.7977 3.28457 20.7977H17.4137C18.4097 20.7977 19.2189 19.9886 19.2189 18.9926V3.29143C19.2189 2.29543 18.4097 1.48629 17.4137 1.48629H3.28457V1.488ZM8.26286 5.55771H14.8697C14.9586 5.5577 15.0467 5.5752 15.1289 5.60922C15.2111 5.64324 15.2857 5.69312 15.3486 5.756C15.4115 5.81888 15.4614 5.89353 15.4954 5.9757C15.5295 6.05786 15.547 6.14592 15.547 6.23486C15.547 6.32379 15.5295 6.41185 15.4954 6.49402C15.4614 6.57618 15.4115 6.65083 15.3486 6.71371C15.2857 6.77659 15.2111 6.82647 15.1289 6.86049C15.0467 6.89451 14.9586 6.91202 14.8697 6.912H8.26286C8.17392 6.91202 8.08586 6.89451 8.00369 6.86049C7.92152 6.82647 7.84686 6.77659 7.78396 6.71371C7.72107 6.65083 7.67118 6.57618 7.63715 6.49402C7.60311 6.41185 7.58559 6.32379 7.58559 6.23486C7.58559 6.14592 7.60311 6.05786 7.63715 5.9757C7.67118 5.89353 7.72107 5.81888 7.78396 5.756C7.84686 5.69312 7.92152 5.64324 8.00369 5.60922C8.08586 5.5752 8.17392 5.5577 8.26286 5.55771ZM8.26286 10.3749H14.8697C15.0493 10.3749 15.2215 10.4462 15.3485 10.5732C15.4755 10.7002 15.5469 10.8724 15.5469 11.052C15.5469 11.2316 15.4755 11.4038 15.3485 11.5308C15.2215 11.6578 15.0493 11.7291 14.8697 11.7291H8.26286C8.17393 11.7291 8.08588 11.7116 8.00373 11.6776C7.92157 11.6436 7.84692 11.5937 7.78405 11.5308C7.72117 11.4679 7.67129 11.3933 7.63726 11.3111C7.60323 11.229 7.58572 11.1409 7.58572 11.052C7.58572 10.9631 7.60323 10.875 7.63726 10.7929C7.67129 10.7107 7.72117 10.6361 7.78405 10.5732C7.84692 10.5103 7.92157 10.4604 8.00373 10.4264C8.08588 10.3924 8.17393 10.3749 8.26286 10.3749ZM8.26286 15.1354H14.8697C14.9586 15.1354 15.0467 15.1529 15.1289 15.1869C15.2111 15.221 15.2857 15.2708 15.3486 15.3337C15.4115 15.3966 15.4614 15.4712 15.4954 15.5534C15.5295 15.6356 15.547 15.7236 15.547 15.8126C15.547 15.9015 15.5295 15.9896 15.4954 16.0717C15.4614 16.1539 15.4115 16.2285 15.3486 16.2914C15.2857 16.3543 15.2111 16.4042 15.1289 16.4382C15.0467 16.4722 14.9586 16.4897 14.8697 16.4897H8.26286C8.17392 16.4897 8.08586 16.4722 8.00369 16.4382C7.92152 16.4042 7.84686 16.3543 7.78396 16.2914C7.72107 16.2285 7.67118 16.1539 7.63715 16.0717C7.60311 15.9896 7.58559 15.9015 7.58559 15.8126C7.58559 15.7236 7.60311 15.6356 7.63715 15.5534C7.67118 15.4712 7.72107 15.3966 7.78396 15.3337C7.84686 15.2708 7.92152 15.221 8.00369 15.1869C8.08586 15.1529 8.17392 15.1354 8.26286 15.1354ZM5.53029 6.91029C5.43861 6.9149 5.34695 6.90083 5.26088 6.86893C5.17482 6.83703 5.09613 6.78796 5.02961 6.72471C4.96309 6.66145 4.91013 6.58534 4.87394 6.50098C4.83775 6.41663 4.81908 6.32579 4.81908 6.234C4.81908 6.14221 4.83775 6.05137 4.87394 5.96702C4.91013 5.88266 4.96309 5.80655 5.02961 5.74329C5.09613 5.68004 5.17482 5.63097 5.26088 5.59907C5.34695 5.56717 5.43861 5.5531 5.53029 5.55771C5.70985 5.55775 5.88206 5.6291 6.00902 5.75609C6.13598 5.88307 6.2073 6.05529 6.2073 6.23486C6.2073 6.41442 6.13598 6.58664 6.00902 6.71362C5.88206 6.84061 5.70985 6.91197 5.53029 6.912V6.91029ZM5.53029 11.7274C5.43861 11.732 5.34695 11.718 5.26088 11.6861C5.17482 11.6542 5.09613 11.6051 5.02961 11.5418C4.96309 11.4786 4.91013 11.4025 4.87394 11.3181C4.83775 11.2338 4.81908 11.1429 4.81908 11.0511C4.81908 10.9594 4.83775 10.8685 4.87394 10.7842C4.91013 10.6998 4.96309 10.6237 5.02961 10.5604C5.09613 10.4972 5.17482 10.4481 5.26088 10.4162C5.34695 10.3843 5.43861 10.3702 5.53029 10.3749C5.70988 10.3749 5.88211 10.4462 6.0091 10.5732C6.13609 10.7002 6.20743 10.8724 6.20743 11.052C6.20743 11.2316 6.13609 11.4038 6.0091 11.5308C5.88211 11.6578 5.70988 11.7291 5.53029 11.7291V11.7274ZM5.53029 16.4897C5.44135 16.4897 5.35329 16.4722 5.27112 16.4382C5.18895 16.4042 5.11428 16.3543 5.05139 16.2914C4.9885 16.2285 4.93861 16.1539 4.90457 16.0717C4.87054 15.9896 4.85302 15.9015 4.85302 15.8126C4.85302 15.7236 4.87054 15.6356 4.90457 15.5534C4.93861 15.4712 4.9885 15.3966 5.05139 15.3337C5.11428 15.2708 5.18895 15.221 5.27112 15.1869C5.35329 15.1529 5.44135 15.1354 5.53029 15.1354C5.70985 15.1355 5.88206 15.2068 6.00902 15.3338C6.13598 15.4608 6.2073 15.633 6.2073 15.8126C6.2073 15.9921 6.13598 16.1644 6.00902 16.2913C5.88206 16.4183 5.70985 16.4897 5.53029 16.4897Z" fill="#8BD8BD"/>
</svg>
