<svg width="18" height="9" viewBox="0 0 18 9" fill="none" xmlns="http://www.w3.org/2000/svg">
<path d="M13.634 8.24852C13.8888 8.40508 14.2228 8.6921 14.2228 8.6921C14.2542 8.71592 14.2975 8.72553 14.3387 8.71727C14.3799 8.70947 14.414 8.68478 14.4294 8.65182C14.4294 8.65182 16.252 4.78601 17.1968 2.78055C13.7801 -0.347364 7.3855 2.84233 3.58423 0.530165C3.32218 0.370409 2.97501 0.0728703 2.97501 0.0728703C2.94316 0.049052 2.89974 0.0399115 2.85854 0.0481439C2.81677 0.0559369 2.78274 0.080634 2.76734 0.113593C2.76734 0.113593 0.945264 3.97987 -0.00012207 5.98486C3.42325 9.11875 9.83487 5.91209 13.634 8.24852ZM11.179 2.01974C12.5534 1.98358 13.8844 2.03805 15.0544 2.43631C14.8704 2.97877 15.1539 3.5418 15.6587 3.96341C15.2572 4.81621 14.8551 5.66904 14.453 6.52184C13.8668 6.27191 13.1912 6.542 12.8858 7.03683C11.7163 6.63903 10.3853 6.5841 9.01088 6.62025C10.1557 6.1428 11.1642 5.32202 11.6311 4.33143C12.0975 3.34267 11.8992 2.44407 11.179 2.01974ZM8.66153 3.24745C8.72854 3.23189 8.79833 3.22044 8.86751 3.20945C8.91367 3.11058 8.96036 3.01217 9.00649 2.91329C9.20094 2.90412 9.39486 2.89407 9.58878 2.88446C9.54374 2.98152 9.49758 3.07855 9.45199 3.17561C9.58326 3.1779 9.70522 3.18751 9.81455 3.20491C10.0002 3.23468 10.1579 3.34498 10.1579 3.34498C10.1799 3.35415 10.1897 3.37152 10.1843 3.39259C10.1788 3.41365 10.159 3.43516 10.1304 3.45165C10.0096 3.51985 9.88764 3.58899 9.76569 3.6581C9.72722 3.68055 9.67997 3.68649 9.64921 3.67551C9.64921 3.67551 9.5256 3.60042 9.39763 3.58211C9.27075 3.56289 9.12848 3.55876 8.97411 3.56561C8.77252 3.57569 8.60992 3.60956 8.4874 3.66906C8.36545 3.72812 8.28304 3.80181 8.24187 3.8897C8.2045 3.96935 8.21002 4.02795 8.25945 4.06685C8.30835 4.10532 8.41108 4.12773 8.56872 4.1314C8.71648 4.13324 8.86481 4.13506 9.01366 4.1369C9.34381 4.14103 9.56902 4.19459 9.69207 4.29347C9.8162 4.39234 9.82939 4.54477 9.73327 4.74848C9.67614 4.86979 9.59208 4.97643 9.48113 5.06983C9.36961 5.16414 9.23887 5.2438 9.09058 5.31016C8.9406 5.37792 8.77583 5.42963 8.594 5.46809C8.5149 5.48503 8.43414 5.49739 8.35286 5.50838C8.29847 5.62328 8.24409 5.73771 8.19026 5.85215C7.99634 5.86176 7.80245 5.87184 7.60797 5.88098C7.6607 5.76883 7.71344 5.65668 7.76674 5.54453C7.60523 5.54268 7.45638 5.53126 7.32124 5.50929C7.11469 5.47542 6.90154 5.30787 6.90154 5.30787C6.88122 5.29826 6.87296 5.27995 6.87901 5.25935C6.88561 5.23967 6.90594 5.21769 6.93283 5.20258C7.06192 5.13115 7.19102 5.05885 7.32011 4.98604C7.36075 4.96407 7.41131 4.95766 7.44151 4.9723C7.44151 4.9723 7.59697 5.09682 7.74638 5.12063C7.89688 5.14398 8.054 5.15178 8.21768 5.14445C8.42423 5.13393 8.60771 5.10004 8.76644 5.04191C8.92629 4.98423 9.03176 4.90047 9.08341 4.79151C9.11965 4.71276 9.11638 4.65188 9.07131 4.60932C9.02628 4.56628 8.92629 4.54387 8.77358 4.53836C8.60437 4.53698 8.4352 4.5347 8.26599 4.53285C7.96607 4.52781 7.75622 4.47701 7.63701 4.38408C7.5167 4.29068 7.50574 4.14147 7.60129 3.93821C7.65402 3.82606 7.73369 3.72443 7.83859 3.63426C7.94406 3.54499 8.06711 3.46627 8.20665 3.4017C8.34734 3.33628 8.49893 3.28454 8.66153 3.24745ZM1.538 4.80156C1.94012 3.94876 2.3422 3.0964 2.74431 2.24356C3.32988 2.4935 4.00555 2.2225 4.30986 1.72858C5.47989 2.12684 6.812 2.18178 8.18692 2.14516C7.0416 2.62308 6.03304 3.44339 5.56613 4.43397C5.09975 5.42365 5.2975 6.32271 6.01712 6.74567C4.64272 6.78229 3.31117 6.72783 2.14114 6.3291C2.32571 5.78667 2.04337 5.2227 1.538 4.80156Z" fill="#8BD8BD"/>
<path d="M4.46265 4.65004C4.68128 4.68024 4.92629 4.56077 5.00539 4.39231C5.08449 4.22477 4.96802 4.07187 4.74942 4.04166C4.53134 4.01146 4.29404 4.11537 4.21493 4.28289C4.1358 4.45091 4.24454 4.6203 4.46265 4.65004Z" fill="#8BD8BD"/>
<path d="M12.4475 4.72422C12.6662 4.75443 12.9035 4.65051 12.9826 4.48299C13.0617 4.315 12.9529 4.14561 12.7343 4.11587C12.5156 4.08613 12.2706 4.20561 12.1915 4.37313C12.1124 4.54111 12.2289 4.69492 12.4475 4.72422Z" fill="#8BD8BD"/>
</svg>
