<svg width="18" height="18" viewBox="0 0 18 18" fill="none" xmlns="http://www.w3.org/2000/svg">
<path d="M13.2 0C11.3175 0 9.67936 1.09846 8.89411 2.68591L1.33798 10.2421C0.525023 10.8416 0 11.8065 0 12.9C0 14.7195 1.45315 16.1828 3.26844 16.1996C3.26897 16.1997 3.2695 16.1999 3.27002 16.2L14.9502 17.9093C15.146 17.9647 15.3515 17.9959 15.5637 17.9991L15.57 18H15.6C16.92 18 18 16.92 18 15.6V4.8C18 2.16 15.84 0 13.2 0ZM13.2 0.600013C15.51 0.600013 17.4 2.49002 17.4 4.80003C17.4 7.11005 15.51 9.00002 13.2 9.00002C10.89 9.00002 9 7.11001 9 4.8C9 4.15386 9.14797 3.54063 9.41154 2.99237C9.41797 2.98105 9.4237 2.96955 9.42852 2.95777C10.1141 1.56467 11.5498 0.600013 13.2 0.600013ZM0.600012 12.9C0.600012 12.027 1.00695 11.2562 1.64246 10.7638C1.66117 10.7528 1.67892 10.7388 1.69646 10.7227C2.14379 10.3939 2.69757 10.2 3.30001 10.2C4.80002 10.2 6.00001 11.4 6.00001 12.9C6.00001 14.4 4.80002 15.6 3.30001 15.6C1.8 15.6 0.600012 14.4 0.600012 12.9ZM15.6 17.4C14.61 17.4 13.8 16.59 13.8 15.6C13.8 14.61 14.61 13.8 15.6 13.8C16.59 13.8 17.4 14.61 17.4 15.6C17.4 16.59 16.59 17.4 15.6 17.4ZM17.4 14.0178C16.9593 13.5174 16.3151 13.2 15.6 13.2C14.28 13.2 13.2 14.28 13.2 15.6001C13.2 16.1917 13.4174 16.7347 13.7757 17.1543L4.80375 15.8413C5.87239 15.2968 6.59999 14.1875 6.59999 12.9C6.59999 11.0701 5.13 9.60003 3.29998 9.60003C3.12275 9.60003 2.94894 9.61399 2.77945 9.64053L8.47733 3.94264C8.4266 4.22104 8.39999 4.50753 8.39999 4.8C8.39999 7.43999 10.56 9.6 13.2 9.6C15.0016 9.6 16.5794 8.59393 17.4 7.11599V14.0178Z" fill="#8BD8BD"/>
<path d="M15.6 15.3C15.42 15.3 15.3 15.42 15.3 15.6C15.3 15.78 15.42 15.9 15.6 15.9C15.78 15.9 15.9 15.78 15.9 15.6C15.9 15.42 15.78 15.3 15.6 15.3Z" fill="#8BD8BD"/>
<path d="M13.2 2.99999C13.38 2.99999 13.5 2.88 13.5 2.7C13.5 2.52 13.38 2.40001 13.2 2.40001C13.02 2.40001 12.9 2.52 12.9 2.7C12.9 2.88 13.02 2.99999 13.2 2.99999Z" fill="#8BD8BD"/>
<path d="M13.2 6.60001C13.02 6.60001 12.9 6.71999 12.9 6.9C12.9 7.08 13.02 7.19998 13.2 7.19998C13.38 7.19998 13.5 7.08 13.5 6.9C13.5 6.71999 13.38 6.60001 13.2 6.60001Z" fill="#8BD8BD"/>
<path d="M4.80001 12.9C4.80001 12.06 4.14002 11.4 3.3 11.4C2.46001 11.4 1.79999 12.06 1.79999 12.9C1.79999 13.74 2.46001 14.4 3.30003 14.4C4.14002 14.4 4.80001 13.74 4.80001 12.9ZM2.40003 12.9C2.40003 12.39 2.79002 12 3.30003 12C3.81005 12 4.20004 12.39 4.20004 12.9C4.20004 13.41 3.81005 13.8 3.30003 13.8C2.79002 13.8 2.40003 13.41 2.40003 12.9Z" fill="#8BD8BD"/>
<path d="M15.3 5.10002C15.48 5.10002 15.6 4.98003 15.6 4.80003C15.6 4.62003 15.48 4.50001 15.3 4.50001C15.12 4.50001 15 4.62 15 4.8C15 4.98 15.12 5.10002 15.3 5.10002Z" fill="#8BD8BD"/>
<path d="M11.1 5.10002C11.28 5.10002 11.4 4.98003 11.4 4.80003C11.4 4.62003 11.28 4.50001 11.1 4.50001C10.92 4.50001 10.8 4.62 10.8 4.8C10.8 4.98 10.92 5.10002 11.1 5.10002Z" fill="#8BD8BD"/>
<path d="M11.7 3.60001C11.88 3.60001 12 3.48002 12 3.30002C12 3.12002 11.88 3.00003 11.7 3.00003C11.52 3.00003 11.4 3.12002 11.4 3.30002C11.4 3.48002 11.52 3.60001 11.7 3.60001Z" fill="#8BD8BD"/>
<path d="M14.7 6.00002C14.52 6.00002 14.4 6.12001 14.4 6.30001C14.4 6.48001 14.52 6.6 14.7 6.6C14.88 6.6 15 6.48001 15 6.30001C15 6.12001 14.88 6.00002 14.7 6.00002Z" fill="#8BD8BD"/>
<path d="M14.7 3.60001C14.88 3.60001 15 3.48002 15 3.30002C15 3.12002 14.88 3.00003 14.7 3.00003C14.52 3.00003 14.4 3.12002 14.4 3.30002C14.4 3.48002 14.52 3.60001 14.7 3.60001Z" fill="#8BD8BD"/>
<path d="M11.7 6.00002C11.52 6.00002 11.4 6.12001 11.4 6.30001C11.4 6.48001 11.52 6.6 11.7 6.6C11.88 6.6 12 6.48001 12 6.30001C12 6.12001 11.88 6.00002 11.7 6.00002Z" fill="#8BD8BD"/>
<path d="M13.2 8.40001C15.18 8.40001 16.8 6.78001 16.8 4.8C16.8 2.82 15.18 1.2 13.2 1.2C11.22 1.2 9.60004 2.82 9.60004 4.8C9.60004 6.78001 11.22 8.40001 13.2 8.40001ZM13.2 1.80001C14.85 1.80001 16.2 3.15001 16.2 4.8C16.2 6.45 14.85 7.8 13.2 7.8C11.55 7.8 10.2 6.45 10.2 4.8C10.2 3.15001 11.55 1.80001 13.2 1.80001Z" fill="#8BD8BD"/>
<path d="M13.2 6.00003C13.86 6.00003 14.4 5.46002 14.4 4.80003C14.4 4.14005 13.86 3.60004 13.2 3.60004C12.54 3.60004 12 4.14005 12 4.80003C12 5.46002 12.54 6.00003 13.2 6.00003ZM13.2 4.20002C13.53 4.20002 13.8 4.47002 13.8 4.80003C13.8 5.13005 13.53 5.40005 13.2 5.40005C12.87 5.40005 12.6 5.13005 12.6 4.80003C12.6 4.47002 12.87 4.20002 13.2 4.20002Z" fill="#8BD8BD"/>
</svg>
