<svg width="16" height="19" viewBox="0 0 16 19" fill="none" xmlns="http://www.w3.org/2000/svg">
<path d="M6.67601 17.9736C6.55501 17.9736 6.47001 17.9736 6.39201 17.9736H6.24801C6.11375 17.9706 5.97996 17.9565 5.84801 17.9316C5.06434 17.8855 4.28481 17.7853 3.51501 17.6316L3.25901 17.5826C2.66562 17.5349 2.09034 17.3554 1.57515 17.0572C1.05995 16.7589 0.617821 16.3494 0.281005 15.8586C0.0975461 15.5115 0.00111592 15.1251 5.21322e-06 14.7326C-0.000826386 14.3355 0.0978454 13.9446 0.287005 13.5956C0.754005 12.7516 1.86201 12.1456 3.48701 11.8426C4.2595 11.6929 5.04075 11.5927 5.82601 11.5426C6.54401 11.4856 7.274 11.4576 7.99601 11.4576C8.71801 11.4576 9.448 11.4856 10.166 11.5426L10.627 11.5776C11.258 11.6346 11.888 11.7226 12.5 11.8396C14.227 12.1596 15.248 12.7206 15.715 13.6056C15.9006 13.952 15.9977 14.339 15.9977 14.7321C15.9977 15.1251 15.9006 15.5121 15.715 15.8586C15.252 16.7386 14.203 17.3136 12.515 17.6126L12.047 17.6996C11.4248 17.807 10.7972 17.8804 10.167 17.9196C9.452 17.9746 8.725 18.0026 8.009 18.0026C7.562 18.0056 7.11301 17.9946 6.67601 17.9736ZM5.94301 12.8436C5.21925 12.8895 4.49913 12.9814 3.78701 13.1186C2.94663 13.1761 2.15984 13.552 1.58701 14.1696C1.49449 14.342 1.44669 14.5349 1.44801 14.7306C1.44729 14.9274 1.49502 15.1215 1.58701 15.2956C1.84201 15.7706 2.61201 16.1326 3.81401 16.3436L4.16701 16.4106C4.78708 16.5196 5.4127 16.5944 6.04101 16.6346C6.13584 16.6513 6.23175 16.6614 6.32801 16.6646L6.72101 16.6706C7.15001 16.6916 7.587 16.7026 8.021 16.7026C8.69901 16.7026 9.387 16.6766 10.067 16.6236C10.7933 16.5787 11.5157 16.4838 12.229 16.3396L12.454 16.2966C13.515 16.0806 14.197 15.7356 14.427 15.2966C14.5203 15.1223 14.5691 14.9277 14.5691 14.7301C14.5691 14.5324 14.5203 14.3378 14.427 14.1636C14.182 13.6996 13.419 13.3356 12.219 13.1126C11.5081 12.9764 10.7894 12.8852 10.067 12.8396H10.054C9.379 12.7866 8.693 12.7596 8.017 12.7596C7.341 12.7596 6.62701 12.7896 5.94201 12.8436H5.94301ZM2.69201 4.80556C2.76497 3.46719 3.3637 2.21184 4.35786 1.31283C5.35201 0.413824 6.66107 -0.0560345 8 0.00555925C9.33962 -0.0571206 10.6497 0.412249 11.6447 1.31137C12.6398 2.21049 13.2391 3.46647 13.312 4.80556C13.2391 6.14465 12.6398 7.40063 11.6447 8.29975C10.6497 9.19887 9.33962 9.66824 8 9.60556C6.66107 9.66715 5.35201 9.19729 4.35786 8.29829C3.3637 7.39928 2.76497 6.14393 2.69201 4.80556ZM4.13401 4.80556C4.18577 5.78118 4.6213 6.69673 5.34557 7.35243C6.06985 8.00813 7.02406 8.35076 8 8.30556C8.97679 8.35212 9.93229 8.01011 10.6577 7.35426C11.383 6.69842 11.8193 5.78209 11.871 4.80556C11.8193 3.82903 11.383 2.9127 10.6577 2.25686C9.93229 1.60101 8.97679 1.25899 8 1.30556C7.02389 1.26008 6.06942 1.60259 5.34493 2.25832C4.62044 2.91405 4.18477 3.82976 4.13301 4.80556H4.13401Z" fill="#8BD8BD"/>
</svg>
