<svg width="24" height="24" viewBox="0 0 24 24" fill="none" xmlns="http://www.w3.org/2000/svg">
<g clip-path="url(#clip0_2_1747)">
<path d="M24 12.769L22.044 10.5454L23.2315 8.14149L20.842 6.96283L21.029 4.05971L18.0649 3.86887L17.1683 1.21935L14.6047 2.08789L12.7687 0.000244141L10.603 1.90489L7.98509 0.611757L6.73399 3.14373L4.05947 2.97262L3.88309 5.72044L1.06246 6.6754L2.00822 9.46625L0 11.231L1.75462 13.2262L0.454865 15.859L3.14876 17.189L2.97201 19.9416L5.61368 20.1114L6.51863 22.7807L9.32394 21.831L11.2313 23.9998L13.2838 22.1941L15.7017 23.3882L16.9612 20.8369L19.9424 21.0291L20.1252 18.1716L22.6244 17.325L21.751 14.7469L24 12.769ZM19.4035 17.6189L19.2364 20.2264L16.5069 20.0518L15.3585 22.3776L13.1647 21.2941L11.3004 22.9339L9.55891 20.9529L6.99139 21.8228L6.16587 19.3894L3.77424 19.2364L3.93432 16.7342L1.46633 15.5156L2.65602 13.1077L1.06638 11.3008L2.8851 9.70147L2.02048 7.14841L4.60467 6.27288L4.76438 3.77338L7.18935 3.92868L8.32731 1.62261L10.7225 2.80617L12.7009 1.06601L14.3701 2.96453L16.6959 2.17664L17.5136 4.58971L20.2272 4.7634L20.0575 7.41562L22.2214 8.48469L21.1442 10.6638L22.9348 12.7006L20.874 14.5127L21.6672 16.8516L19.4035 17.6189Z" fill="#8BD8BD"/>
<path d="M14.7953 11.1292C13.6701 11.1292 12.7407 12.0841 12.7407 13.7993C12.7529 15.5005 13.6698 16.351 14.73 16.351C15.817 16.351 16.7588 15.4614 16.7588 13.6673C16.7593 12.0452 15.9872 11.1292 14.7953 11.1292ZM14.7564 15.6576C14.0496 15.6576 13.6308 14.8333 13.6439 13.7477C13.6439 12.6738 14.0365 11.8233 14.7564 11.8233C15.5543 11.8233 15.8552 12.6871 15.8552 13.7218C15.8552 14.8461 15.5157 15.6576 14.7564 15.6576Z" fill="#8BD8BD"/>
<path d="M11.2224 10.1479C11.2224 8.52526 10.4372 7.60793 9.24621 7.60793C8.12063 7.60793 7.19153 8.56424 7.19153 10.2654C7.20464 11.9793 8.12063 12.8299 9.18087 12.8299C10.2801 12.8304 11.2224 11.9404 11.2224 10.1479ZM8.10739 10.2264C8.10739 9.15259 8.48773 8.30206 9.20674 8.30206C10.0052 8.30206 10.3061 9.16583 10.3061 10.2006C10.3061 11.3253 9.9657 12.1369 9.20674 12.1369C8.48773 12.1364 8.08116 11.3122 8.10739 10.2264Z" fill="#8BD8BD"/>
<path d="M14.1018 7.60806L9.10193 16.4037H9.83442L14.8349 7.60806H14.1018Z" fill="#8BD8BD"/>
</g>
<defs>
<clipPath id="clip0_2_1747">
<rect width="24" height="24" fill="white"/>
</clipPath>
</defs>
</svg>
