<svg width="18" height="18" viewBox="0 0 18 18" fill="none" xmlns="http://www.w3.org/2000/svg">
<g clip-path="url(#clip0_2_83)">
<path d="M13.6744 13.0796L13.3503 13.4072L13.1 13.1562C13.1698 13.0911 13.2436 13.0322 13.3111 12.9648C16.2725 10.0034 16.2725 5.18509 13.3111 2.22256C11.8774 0.788943 9.97027 -1.52588e-05 7.94196 -1.52588e-05C5.91259 -1.52588e-05 4.00538 0.788943 2.5706 2.22372C-0.390768 5.18509 -0.391348 10.0034 2.56944 12.9648C4.00432 14.3991 5.91143 15.1885 7.94022 15.1885C9.7182 15.1885 11.4027 14.5813 12.758 13.4671L13.025 13.7341L12.7009 14.0599L16.6773 18L17.6508 17.0167L13.6744 13.0796ZM2.89699 12.6396C0.116164 9.85873 0.116744 5.33277 2.89757 2.55185C4.24536 1.20473 6.03717 0.462458 7.94312 0.462458C9.848 0.462458 11.6398 1.20348 12.9869 2.55069C15.7678 5.33268 15.7678 9.85863 12.9869 12.6395C11.6397 13.9867 9.84791 14.7288 7.94138 14.7288C6.03543 14.7289 4.24421 13.9867 2.89699 12.6396ZM12.0914 6.49828C11.904 5.08941 11.1277 4.0594 10.1709 4.0594H5.71242C4.75568 4.0594 3.97948 5.08709 3.7914 6.49828C3.10682 6.84719 2.74699 7.56289 2.74699 8.39737C2.74699 9.03807 2.96214 9.60618 3.36807 9.99655V11.3339H5.02099V10.5271H10.8618V11.3339H12.514V9.99655C12.92 9.60492 13.1351 9.03807 13.1351 8.39737C13.1363 7.56289 12.7765 6.84777 12.0914 6.49828ZM5.71242 4.55648H10.1709C10.8001 4.55648 11.3502 5.30098 11.5539 6.3102C11.4524 6.29116 11.3405 6.28536 11.2298 6.27966C11.2298 6.27502 11.231 6.27154 11.231 6.26758C11.231 5.68284 10.7552 5.20645 10.1698 5.20645C9.58569 5.20645 9.10988 5.68284 9.10988 6.26758H4.78864C4.62539 6.26758 4.47259 6.28314 4.32781 6.3103C4.53367 5.30098 5.0839 4.55648 5.71242 4.55648ZM10.9016 6.26758H9.44197C9.44197 5.86561 9.76952 5.53632 10.1715 5.53632C10.574 5.53632 10.9016 5.86503 10.9016 6.26758ZM4.54295 9.08997C4.16118 9.08997 3.85093 8.7803 3.85093 8.39737C3.85093 8.0156 4.16118 7.70593 4.54295 7.70593C4.9253 7.70593 5.23555 8.0156 5.23555 8.39737C5.23555 8.7803 4.9253 9.08997 4.54295 9.08997ZM9.95181 8.96596H5.93105C5.83933 8.96596 5.76558 8.8927 5.76558 8.80156C5.76558 8.71042 5.83942 8.6361 5.93105 8.6361H9.95181C10.0435 8.6361 10.1173 8.71052 10.1173 8.80156C10.1173 8.89261 10.0441 8.96596 9.95181 8.96596ZM9.95181 8.36045H5.93105C5.83933 8.36045 5.76558 8.28603 5.76558 8.19605C5.76558 8.10374 5.83942 8.03058 5.93105 8.03058H9.95181C10.0435 8.03058 10.1173 8.10384 10.1173 8.19605C10.1179 8.28603 10.0441 8.36045 9.95181 8.36045ZM11.3416 9.08997C10.9593 9.08997 10.649 8.7803 10.649 8.39737C10.649 8.0156 10.9593 7.70593 11.3416 7.70593C11.724 7.70593 12.0337 8.0156 12.0337 8.39737C12.0337 8.7803 11.7234 9.08997 11.3416 9.08997Z" fill="#8BD8BD"/>
</g>
<defs>
<clipPath id="clip0_2_83">
<rect width="18" height="18" fill="white"/>
</clipPath>
</defs>
</svg>
