<svg width="20" height="21" viewBox="0 0 20 21" fill="none" xmlns="http://www.w3.org/2000/svg">
<path fill-rule="evenodd" clip-rule="evenodd" d="M1.70247 9.7661C1.70247 5.85717 4.87126 2.68839 8.7802 2.68839C12.6891 2.68839 15.8578 5.85717 15.8578 9.7661C15.8578 13.675 12.6891 16.8438 8.7802 16.8438C4.87126 16.8438 1.70247 13.675 1.70247 9.7661ZM8.7802 0.985924C3.93101 0.985924 0 4.91693 0 9.7661C0 14.6152 3.93101 18.5462 8.7802 18.5462C11.0537 18.5462 13.1253 17.6821 14.6847 16.2645L18.5468 20.1266C18.8793 20.459 19.4182 20.459 19.7507 20.1266C20.0831 19.7942 20.0831 19.2552 19.7507 18.9228L15.8294 15.0015C16.9168 13.5397 17.5603 11.728 17.5603 9.7661C17.5603 4.91693 13.6293 0.985924 8.7802 0.985924Z" fill="#8BD8BD"/>
</svg>
