<svg width="14" height="14" viewBox="0 0 14 14" fill="none" xmlns="http://www.w3.org/2000/svg">
<path d="M13.5601 0.558454C13.8418 0.916495 14 1.40184 14 1.90787C14 2.4139 13.8418 2.89924 13.5601 3.25728L5.53791 13.4415C5.25588 13.7991 4.87357 14 4.47497 14C4.07636 14 3.69406 13.7991 3.41202 13.4415L0.4037 9.62245C0.138005 9.26046 -0.00664111 8.78168 0.000234343 8.28698C0.0071098 7.79228 0.16497 7.32027 0.440559 6.97041C0.716147 6.62055 1.08795 6.42014 1.47763 6.41141C1.86731 6.40268 2.24444 6.58632 2.52958 6.92362L4.47497 9.3933L11.4342 0.558454C11.7163 0.200858 12.0986 0 12.4972 0C12.8958 0 13.2781 0.200858 13.5601 0.558454Z" fill="#FF9900"/>
</svg>
